<svg width="74" height="74" viewBox="0 0 74 74" fill="none" xmlns="http://www.w3.org/2000/svg">
<path d="M37 70.1459C18.7158 70.1459 3.85416 55.2842 3.85416 37C3.85416 18.7159 18.7158 3.85419 37 3.85419C55.2842 3.85419 70.1458 18.7159 70.1458 37C70.1458 55.2842 55.2842 70.1459 37 70.1459ZM37 8.47919C21.275 8.47919 8.47916 21.275 8.47916 37C8.47916 52.725 21.275 65.5209 37 65.5209C52.725 65.5209 65.5208 52.725 65.5208 37C65.5208 21.275 52.725 8.47919 37 8.47919Z" fill="#50CD89"/>
<path d="M32.6217 48.0383C32.005 48.0383 31.4192 47.7917 30.9875 47.36L22.2617 38.6342C21.3675 37.74 21.3675 36.26 22.2617 35.3658C23.1558 34.4717 24.6358 34.4717 25.53 35.3658L32.6217 42.4575L48.47 26.6092C49.3642 25.715 50.8442 25.715 51.7383 26.6092C52.6325 27.5033 52.6325 28.9833 51.7383 29.8775L34.2558 47.36C33.8242 47.7917 33.2383 48.0383 32.6217 48.0383Z" fill="#50CD89"/>
</svg>
